<svg width="217" height="104" viewBox="0 0 217 104" fill="none" xmlns="http://www.w3.org/2000/svg">
<path fill-rule="evenodd" clip-rule="evenodd" d="M157.156 32.4521C147.26 33.2462 138.366 38.3354 134.005 45.6978C131.963 49.1443 131.304 51.6196 131.299 55.8538C131.294 60.0873 132.209 63.2385 134.445 66.6926C136.433 69.764 140.763 73.6435 144.134 75.3742C146.842 76.7644 146.953 76.874 146.954 78.1691C146.956 80.3017 145.935 83.188 144.337 85.5654C143.151 87.3301 142.939 87.8975 143.249 88.4778C143.588 89.1102 143.919 89.1695 145.957 88.9625C150.688 88.4816 155.582 85.1132 157.632 80.9269L158.397 79.3659L162.782 79.1744C171.213 78.8056 177.686 76.0912 183.259 70.5876C194.686 59.3019 190.864 42.7744 175.123 35.4079C171.878 33.8896 168.068 32.8424 164.901 32.5983C163.446 32.4865 161.831 32.3497 161.312 32.2946C160.792 32.2394 158.922 32.3104 157.156 32.4521ZM167.278 35.6739C173.078 36.8662 179.024 40.1307 182.419 43.9879C183.291 44.9788 184.636 47.0672 185.408 48.6298C186.785 51.4141 186.812 51.5569 186.812 55.8538C186.812 60.1512 186.785 60.2929 185.413 63.0515C183.612 66.673 181.253 69.3258 177.753 71.6677C172.952 74.8785 168.463 76.2355 161.505 76.5789L156.598 76.8211L155.705 78.704C154.394 81.469 152.777 83.3285 150.592 84.5813C149.527 85.1922 148.473 85.6935 148.249 85.6957C148.005 85.6976 148.19 84.6795 148.712 83.1491C149.295 81.4369 149.584 79.7048 149.59 77.8778L149.6 75.1566L146.106 73.3541C137.531 68.9314 132.787 61.0171 134.085 53.3038C135.562 44.5266 144.203 37.1968 155.267 35.3373C157.699 34.9281 164.59 35.1216 167.278 35.6739ZM192.029 48.5383C191.604 49.6475 192.447 50.2618 195.681 51.1953C203.806 53.541 209.763 58.5399 212.333 65.1701C213.535 68.2729 213.535 73.2801 212.333 76.3829C210.359 81.474 206.74 85.2647 200.858 88.4007L197.768 90.0486L197.785 93.4461C197.799 96.1193 197.981 97.2391 198.64 98.697C199.101 99.7159 199.407 100.62 199.322 100.706C199.236 100.791 198.341 100.44 197.333 99.9244C194.593 98.522 192.252 95.822 191.19 92.839C190.846 91.8703 190.775 91.8533 186.182 91.638C178.008 91.2549 171.414 88.8352 166.81 84.5288C164.142 82.0323 162.751 81.6636 162.506 83.3875C162.409 84.075 162.873 84.7464 164.474 86.2364C169.741 91.1385 178.403 94.3883 186.201 94.3883H188.702L189.603 96.0853C190.853 98.4427 193.904 101.381 196.256 102.494C198.328 103.474 202.099 104.243 203.298 103.929C204.396 103.641 204.15 102.145 202.689 100.231C201.247 98.3415 200.224 95.4204 200.224 93.1911C200.224 91.7967 200.3 91.7139 202.774 90.4502C209.695 86.9134 214.53 80.7535 215.752 73.9178C216.996 66.9529 213.68 59.0212 207.484 54.1466C202.195 49.9841 192.785 46.5697 192.029 48.5383Z" fill="#9665FF"/>
<path d="M3.59224 21.844H3.53008L3.77872 22.217L3.90304 22.4657C4.08953 22.7143 4.27601 22.9629 4.52465 23.1494C4.83546 23.4602 5.14626 23.7089 5.45707 23.9575C6.32732 24.517 7.25973 24.8278 8.25431 24.8278C8.68943 24.8278 9.18672 24.7656 9.62185 24.6413C11.4245 24.2062 13.1029 22.8386 14.0353 21.0981H14.0974L14.1596 20.9116L14.4704 20.29H14.4082C14.8434 19.2333 14.9677 18.1765 14.719 17.1198C14.719 16.9333 14.6569 16.7468 14.5947 16.5604L14.6569 16.6225L14.3461 15.8766L14.2839 15.7523C13.6001 14.3847 12.4812 13.5145 10.9272 13.2037C8.93808 12.7685 6.63812 13.4523 4.95978 14.882L4.71113 15.1307L4.46249 15.3793C3.53008 16.3739 2.97063 17.5549 2.90847 18.8603C2.78415 19.9171 3.03279 20.9116 3.59224 21.844ZM14.5947 44.7814V44.222C14.5326 43.3517 14.4704 42.4815 14.4704 41.922C14.4704 40.8031 14.6569 39.6221 14.7812 38.3788C15.1542 35.7059 15.5271 32.9709 14.2218 30.4844C13.4758 28.9304 11.984 27.998 10.2435 27.8115C8.31647 27.625 6.32732 28.3709 5.0841 29.8006H5.02194L4.89762 29.9871V30.0493H4.83546L4.64897 30.2979C4.64897 30.3601 4.58681 30.3601 4.58681 30.4223C3.21927 32.5357 3.03279 35.2086 3.09495 37.3843V37.7572V38.068C3.15711 38.7518 3.15711 39.4356 3.21927 40.1194C3.28143 40.4923 3.28143 40.8653 3.28143 41.2383C3.46792 43.9733 3.46792 46.8327 3.40576 49.5678C3.40576 51.3083 3.40576 53.1731 3.40576 54.9758C3.46792 57.7109 3.90304 60.6325 6.70028 61.7514C7.69486 62.1865 8.56511 62.373 9.43536 62.373C9.55969 62.373 9.74617 62.373 9.87049 62.3108V62.373L10.1191 62.3108L10.5543 62.2486V62.1865C11.6732 61.9378 12.5434 61.1919 13.2272 60.0109C13.3515 59.7622 13.4758 59.5136 13.6001 59.2028L13.7245 58.892C13.7245 58.8298 13.7245 58.8298 13.7245 58.8298L13.8488 58.5811C14.4704 56.7785 14.7812 54.4164 14.8434 51.3083V51.1218V50.5002C14.8434 48.4489 14.719 46.4598 14.5947 44.7814ZM64.592 66.4134C63.9704 64.2378 62.2299 63.554 60.6759 63.0567H60.6137L59.8678 62.8081L58.5002 62.3108C57.8165 62.1243 57.0705 61.8135 56.3868 61.5649L56.2003 61.5027L55.8895 61.3784C55.1436 61.0054 54.7084 60.5703 54.5841 60.073C54.4598 59.4514 54.8949 58.7676 55.33 58.146C55.4544 58.0839 55.5787 57.9595 55.703 57.8352C58.5002 55.2866 60.3029 51.8056 60.9867 47.7651L61.0488 47.5165C61.3596 45.7138 61.6704 43.7868 61.8569 41.8599C62.1677 39.0626 62.1056 36.8248 61.7326 34.7114C60.9867 30.7952 58.9354 27.1899 55.7652 24.3305L55.6408 24.2683L55.0814 23.771V23.8332C53.5895 22.59 51.9112 21.5954 50.1707 20.7873L49.5491 20.4765L49.3626 20.4143C48.4923 20.1035 47.6221 19.7927 46.7518 19.5441C43.7059 18.736 39.0439 18.1144 34.3818 19.9171C33.698 20.1657 33.0143 20.4765 32.2683 20.8495L32.0818 20.9738L31.5846 21.2224V21.2846C30.59 21.844 29.6576 22.5278 28.7252 23.2737L28.29 23.6467L28.1657 23.771C27.109 24.7034 26.1144 25.698 25.182 26.8169C22.1983 30.4223 20.2713 34.3384 19.5875 38.1924C19.4632 38.814 19.401 39.3734 19.3389 40.0572V40.1815L19.2767 40.9274C19.2145 41.8599 19.2767 42.7923 19.3389 43.7247H19.2767L19.401 44.4085V44.5949C19.8983 48.3868 21.328 52.0543 23.5658 55.1001C24.1253 55.9704 24.8712 56.7785 25.6793 57.5244L25.8036 57.6487L26.2387 58.0839C27.0468 58.7676 27.8549 59.3892 28.7873 59.9487H28.7252L29.2846 60.2595L29.4711 60.3838V60.3217C32.7035 62.1243 36.5574 63.1189 40.7222 63.1189H40.9087L44.2032 66.0405C46.6897 68.2161 49.1139 69.8944 51.3517 71.0755C53.6517 72.2566 55.8273 72.8782 57.8165 72.8782C59.9299 72.8782 61.5461 72.3187 62.7893 71.1998C63.8461 70.2674 64.4055 68.8999 64.592 67.0972C64.592 66.8486 64.592 66.6621 64.592 66.4134ZM47.6842 47.5165C46.2545 48.884 44.1411 49.63 41.7168 49.5678C40.7222 49.5678 39.7898 49.3813 38.9817 49.1327C38.2979 48.9462 37.6142 48.6354 37.1169 48.2624C36.371 47.8273 35.7493 47.1435 35.2521 46.3354C34.2575 44.8436 33.698 42.8544 33.7602 40.8031C33.8845 35.7681 37.3034 32.1006 41.9033 32.1006C47.187 32.1006 49.8599 36.3897 50.0464 40.368L50.1085 40.741V40.8031C50.1085 41.7977 50.0464 42.7301 49.7977 43.6625C49.5491 44.4706 49.2383 45.2787 48.8653 45.9625C48.4923 46.5841 48.1194 47.1435 47.6842 47.5165ZM99.103 46.3354C99.0408 45.403 99.0408 44.4706 99.0408 43.6625C99.0408 42.2328 99.103 40.8031 99.1651 39.4356C99.2273 37.8194 99.3516 36.1411 99.2895 34.4627V34.0276V33.7789C99.2273 32.4114 99.103 31.2925 98.9165 30.2358C98.73 29.179 98.1706 28.2466 97.3003 27.5628V27.5007L96.9895 27.3142L96.7409 27.1277C95.1868 26.071 93.1355 25.6359 91.4572 26.071C87.6654 27.0656 87.6032 31.2303 87.6032 34.3384V34.8978C87.6032 36.9491 87.7275 39.0005 87.7897 40.9896C87.914 42.7301 88.0383 44.4706 88.0383 46.2733C88.0383 48.3246 87.914 50.3759 86.6708 51.6191C86.1113 52.1786 85.2411 52.4894 84.2465 52.6137C83.0655 52.6759 81.6358 52.4272 80.579 51.8678C79.398 51.3083 78.652 50.4381 78.1547 49.1948C77.6575 48.0138 77.471 46.5219 77.5331 44.6571C77.5331 43.1031 77.6575 41.5491 77.7818 39.995C77.9683 38.1302 78.0926 36.2032 78.1547 34.2762V34.0276V33.5925H78.0926C78.0926 33.2195 78.0926 32.8465 78.0926 32.4736C77.9683 29.7385 76.9737 27.8115 75.3575 26.7548L74.8602 26.444L74.6737 26.3818C74.3008 26.1953 73.8656 26.071 73.4927 26.0088C71.69 25.5737 69.1414 25.698 67.6495 27.3764C65.9712 29.2412 66.282 32.4114 66.5307 34.96C66.5307 35.5816 66.5928 36.1411 66.655 36.7005C66.7171 38.3167 66.655 39.995 66.5928 41.7355C66.3442 47.0192 66.1577 52.5515 70.0117 56.7163C72.8711 59.7622 77.3467 61.2541 83.3141 61.2541C84.3708 61.2541 85.5519 61.2541 86.7329 61.1297C89.2815 60.8811 91.2707 60.5081 93.0112 59.8865H93.1355L93.8193 59.6379V59.5757C94.5031 59.3271 95.1868 59.0163 95.7463 58.6433C95.8706 58.519 95.9949 58.4568 96.1192 58.3325C96.2436 58.2703 96.3679 58.146 96.4922 58.0839V58.146L96.9895 57.5244C97.0517 57.5244 97.0517 57.5244 97.0517 57.5244L97.1138 57.4001C99.5381 54.6029 99.2895 50.0651 99.103 46.3354ZM105.15 21.844H105.088L105.337 22.217L105.461 22.4657C105.647 22.7143 105.834 22.9629 106.082 23.1494C106.393 23.4602 106.704 23.7089 107.015 23.9575C107.885 24.517 108.818 24.8278 109.812 24.8278C110.247 24.8278 110.745 24.7656 111.18 24.6413C112.982 24.2062 114.661 22.8386 115.593 21.0981H115.655L115.717 20.9116L116.028 20.29H115.966C116.401 19.2333 116.526 18.1765 116.277 17.1198C116.277 16.9333 116.215 16.7468 116.153 16.5604L116.215 16.6225L115.904 15.8766L115.842 15.7523C115.158 14.3847 114.039 13.5145 112.485 13.2037C110.496 12.7685 108.196 13.4523 106.518 14.882L106.269 15.1307L106.02 15.3793C105.088 16.3739 104.528 17.5549 104.466 18.8603C104.342 19.9171 104.591 20.9116 105.15 21.844ZM116.153 44.7814V44.222C116.09 43.3517 116.028 42.4815 116.028 41.922C116.028 40.8031 116.215 39.6221 116.339 38.3788C116.712 35.7059 117.085 32.9709 115.78 30.4844C115.034 28.9304 113.542 27.998 111.801 27.8115C109.874 27.625 107.885 28.3709 106.642 29.8006H106.58L106.455 29.9871V30.0493H106.393L106.207 30.2979C106.207 30.3601 106.145 30.3601 106.145 30.4223C104.777 32.5357 104.591 35.2086 104.653 37.3843V37.7572V38.068C104.715 38.7518 104.715 39.4356 104.777 40.1194C104.839 40.4923 104.839 40.8653 104.839 41.2383C105.026 43.9733 105.026 46.8327 104.964 49.5678C104.964 51.3083 104.964 53.1731 104.964 54.9758C105.026 57.7109 105.461 60.6325 108.258 61.7514C109.253 62.1865 110.123 62.373 110.993 62.373C111.118 62.373 111.304 62.373 111.428 62.3108V62.373L111.677 62.3108L112.112 62.2486V62.1865C113.231 61.9378 114.101 61.1919 114.785 60.0109C114.909 59.7622 115.034 59.5136 115.158 59.2028L115.282 58.892C115.282 58.8298 115.282 58.8298 115.282 58.8298L115.407 58.5811C116.028 56.7785 116.339 54.4164 116.401 51.3083V51.1218V50.5002C116.401 48.4489 116.277 46.4598 116.153 44.7814ZM149.429 54.2299C148.745 52.9867 147.439 52.2407 145.761 52.2407H145.45C144.642 52.2407 143.772 52.3029 142.902 52.3029H142.777C141.534 52.3029 140.353 52.3029 139.11 52.3029C138.177 52.3029 137.369 52.3029 136.686 52.2407C136.499 52.2407 136.313 52.2407 136.25 52.1786C136.126 52.0543 136.002 51.8678 136.064 51.6191C136.126 50.811 136.81 50.0029 137.431 49.257C137.556 49.0705 137.68 48.884 137.804 48.7597C138.488 47.8895 139.234 47.0192 139.918 46.2111C140.291 45.8382 140.664 45.403 140.975 44.9679L143.585 41.8599C143.71 41.7355 143.958 41.5491 144.207 41.2383C145.264 40.2437 146.01 39.4356 146.134 38.8761C146.818 38.068 147.502 37.1978 148.061 36.3275L148.123 36.2032C148.123 36.2032 148.123 36.2032 148.185 36.2032L148.62 35.4573H148.558C149.056 34.5249 149.304 33.6546 149.366 32.8465L149.491 32.9709L149.304 31.852V31.7898H149.242C149.118 30.9817 148.745 30.2979 148.185 29.6763C147.253 28.6196 145.326 27.5007 143.648 27.5007H130.78C130.097 27.5007 129.413 27.4385 128.729 27.3764C127.424 27.252 125.994 27.1899 124.626 27.5007C123.134 27.8115 121.953 28.8061 121.518 30.2979H121.456C121.456 30.3601 121.456 30.3601 121.456 30.4223V30.4844L121.145 31.2925L121.27 31.2303C121.021 32.5979 121.207 34.2141 122.202 35.0222C123.134 35.8924 124.937 36.1411 126.802 36.2654H127.361H127.424H127.61L127.859 36.3275C128.17 36.3275 128.418 36.3275 128.667 36.3275C128.915 36.3275 129.351 36.3275 129.848 36.2654C131.278 36.2032 134.199 36.0789 134.821 36.7005C134.883 36.8248 134.883 36.887 134.883 37.0113C134.883 37.26 134.696 37.5086 134.448 37.8194C133.826 38.5653 133.142 39.2491 132.521 39.9329C131.837 40.6788 131.153 41.4869 130.469 42.295L125.061 48.6976L123.134 50.9975C122.762 51.4326 122.451 51.8678 122.202 52.3651L122.14 52.3029L121.953 52.738C121.953 52.8002 121.891 52.8002 121.891 52.8002L121.829 52.9867C120.959 54.6029 120.772 56.1569 121.207 57.6487C121.332 58.0839 121.518 58.4568 121.705 58.892C122.886 60.8189 125.061 61.2541 127.237 61.2541C128.232 61.2541 129.164 61.1919 130.097 61.1297C130.842 61.0676 131.526 61.0054 132.148 61.0054C135.505 60.9433 138.986 60.9433 142.28 61.0054H145.264C146.321 61.0054 147.626 61.0054 148.62 60.1973C149.366 59.6379 149.802 58.6433 149.926 57.4623C150.05 56.592 150.05 55.3488 149.429 54.2299Z" fill="white"/>
<path d="M168.513 52.026C167.919 50.7093 166.763 49.7828 165.321 49.5193C164.83 49.4273 164.323 49.4136 163.791 49.4575L163.75 49.4739L163.449 49.4978L163.478 49.5103C163.185 49.5549 162.88 49.6283 162.562 49.7305L162.583 49.7223L162.314 49.8288L162.273 49.8451C160.635 50.4715 159.292 51.7212 158.657 53.1913L158.636 53.1995L158.632 53.2489L158.52 53.5084L158.541 53.5002C158.516 53.5578 158.491 53.6155 158.474 53.6938C158.317 54.1386 157.88 55.5061 158.859 56.1683L158.909 56.1725C159.102 56.3586 159.387 56.4129 159.663 56.4466C159.91 56.4679 160.178 56.481 160.45 56.4446C161.114 56.3721 161.58 56.1631 161.878 55.83C162.333 55.2911 162.326 54.6727 162.299 54.1821C162.308 53.8441 162.292 53.5637 162.421 53.3455C162.71 52.8722 163.927 52.6281 164.516 52.8481C164.883 52.9893 165.158 53.2621 165.297 53.6129C165.584 54.3351 165.129 54.9935 164.595 55.7547C164.082 56.5078 163.469 57.3719 163.599 58.4194C163.627 58.6709 163.737 59.0092 163.819 59.3351C163.872 59.529 163.917 59.7023 163.945 59.8343C164.031 60.2303 164.281 60.5607 164.652 60.772C165.138 61.033 165.822 61.0719 166.428 60.855L166.47 60.8386C166.985 60.6339 167.564 60.1654 167.743 59.5929C167.876 59.0862 167.634 58.6568 167.462 58.343C167.384 58.2068 167.289 58.0292 167.277 57.9385C167.257 57.5881 167.634 57.0325 167.932 56.5798C168.056 56.4111 168.18 56.2424 168.296 56.0531L168.321 55.9955L168.449 55.7773C168.532 55.625 168.595 55.4809 168.644 55.3656C168.715 55.1225 168.786 54.8795 168.828 54.624L168.836 54.6446L168.865 54.418L168.861 54.3479C168.95 53.5483 168.849 52.7524 168.513 52.026ZM169.084 62.309C168.693 61.7473 167.919 61.3619 167.157 61.3063L166.947 61.3181C166.918 61.3057 166.918 61.3057 166.897 61.3138L166.848 61.3096C166.658 61.3132 166.464 61.3663 166.278 61.44C165.577 61.7185 165.233 62.3566 165.33 63.2019C165.443 64.0886 166.064 64.7498 166.97 64.9872C167.291 65.0746 167.662 65.0467 168.013 64.9075C168.302 64.7928 168.587 64.6081 168.806 64.3778C168.827 64.3696 168.839 64.3408 168.872 64.3038C169.038 64.1187 169.451 63.5962 169.333 62.9982L169.346 62.9693C169.333 62.8786 169.301 62.7961 169.276 62.7342L169.268 62.7135C169.231 62.5609 169.161 62.4453 169.084 62.309Z" fill="#9665FF"/>
<path d="M192.75 78.2682C192.785 78.2952 192.82 78.3222 192.855 78.3491C193.429 78.732 194.297 78.9489 194.904 78.6305C195.243 78.4428 196.246 77.169 197.041 76.1286L197.082 76.0757L197.23 75.8817C197.567 75.4409 197.927 74.9337 198.305 74.4399L198.436 74.2325L198.476 74.1796C199.614 72.6185 200.794 70.8935 200.89 70.5481C200.991 70.2338 200.887 69.9308 200.783 69.7389C200.704 69.6227 200.625 69.5065 200.515 69.3945C200.515 69.3945 200.476 69.3364 200.423 69.2959C200.37 69.2555 200.317 69.215 200.295 69.1704L200.225 69.1164C200.172 69.076 200.136 69.049 200.101 69.022C199.872 68.8467 199.077 68.3508 198.501 68.776C198.474 68.8113 198.416 68.8507 198.33 68.9254L198.317 68.943L198.308 68.9918C198.308 68.9918 198.263 69.0135 198.25 69.0312C198.236 69.0488 198.223 69.0664 198.205 69.053C198.151 69.1235 198.111 69.1764 198.039 69.2334L197.985 69.304C197.832 69.4668 197.68 69.6297 197.532 69.8236C197.298 70.0923 197.051 70.3786 196.818 70.6472L196.656 70.8588C196.53 70.9864 196.423 71.1275 196.297 71.255C195.929 71.7 195.56 72.145 195.223 72.5859C192.2 76.2827 192.151 76.7484 192.118 76.9746C192.056 77.458 192.291 77.9175 192.75 78.2682ZM193.122 81.1801C193.425 80.6013 193.378 79.8949 193.002 79.3274C192.629 78.791 192.006 78.5098 191.348 78.5658C190.832 78.6186 190.297 78.88 189.925 79.2939C189.552 79.7077 189.383 80.2212 189.467 80.7326C189.556 81.1642 189.762 81.5169 190.097 81.7731C190.344 81.962 190.627 82.0668 190.968 82.1322L190.999 82.128L191.017 82.1415L191.274 82.1706L191.256 82.1571C191.638 82.1696 192.039 82.0846 192.378 81.8968L192.382 81.928L192.628 81.7527L192.655 81.7174L192.668 81.6998C192.87 81.5463 193.022 81.3834 193.122 81.1801Z" fill="#9665FF"/>
</svg>
